<svg width="13" height="13" viewBox="0 0 13 13" fill="none" xmlns="http://www.w3.org/2000/svg">
<path d="M2.89693 3.03331C2.03188 3.93218 1.5 5.15398 1.5 6.5C1.5 9.26144 3.73858 11.5 6.5 11.5C7.1755 11.5 7.81975 11.3661 8.40756 11.1233C8.47944 10.6542 8.32175 10.2041 8.25725 10.0466C8.11375 9.69688 7.64006 9.09888 6.84931 8.26925C6.63825 8.04738 6.65181 7.87719 6.72725 7.37144L6.73594 7.31431C6.78719 6.96788 6.87319 6.76306 8.03888 6.578C8.63106 6.48413 8.78681 6.72081 9.00269 7.04856C9.02656 7.08488 9.05044 7.1205 9.07488 7.15619C9.27994 7.45606 9.43188 7.52463 9.66138 7.629C9.76419 7.67563 9.8925 7.73444 10.0644 7.83213C10.4719 8.065 10.4719 8.32794 10.4719 8.9045V8.96988C10.4719 9.21463 10.448 9.4295 10.4104 9.61619C11.0924 8.76156 11.5 7.67838 11.5 6.5C11.5 4.43806 10.2519 2.66763 8.46994 1.90301C8.12419 2.13633 7.64988 2.46704 7.48438 2.69375C7.39975 2.80961 7.28013 3.40104 6.89106 3.44985C6.78913 3.46264 6.65238 3.45368 6.5075 3.44436C6.11906 3.41911 5.58763 3.38504 5.4175 3.84684C5.3095 4.1395 5.2905 4.93403 5.63994 5.34644C5.69588 5.41231 5.70669 5.53419 5.66869 5.67094C5.61875 5.8505 5.51788 5.95975 5.48644 5.98231C5.42619 5.94769 5.306 5.80819 5.22461 5.71325C5.02846 5.48531 4.78378 5.20146 4.46748 5.1136C4.35247 5.08177 4.22604 5.05542 4.10343 5.0296C3.76025 4.95767 3.37152 4.87584 3.2812 4.68314C3.21526 4.542 3.21555 4.34763 3.21581 4.14228C3.21581 3.882 3.21581 3.58768 3.08831 3.3016C3.03904 3.19088 2.97306 3.10279 2.89693 3.03331ZM6.5 12.75C3.04822 12.75 0.25 9.95175 0.25 6.5C0.25 3.04822 3.04822 0.25 6.5 0.25C9.95175 0.25 12.75 3.04822 12.75 6.5C12.75 9.95175 9.95175 12.75 6.5 12.75Z" fill="white">
</svg>
